<svg width="56" height="72" viewBox="0 0 56 72" fill="none" xmlns="http://www.w3.org/2000/svg">
<path d="M13 0H23V10H13V0Z" fill="#090A14"/>
<path d="M23 10H33V20H23V10Z" fill="#090A14"/>
<path d="M33 20H43V30H33V20Z" fill="#090A14"/>
<path d="M33 0H43V10H33V0Z" fill="#090A14"/>
<path d="M13 20H23V30H13V20Z" fill="#090A14"/>
<path d="M5.304 61.192C4.632 61.192 3.896 61.152 3.096 61.072C2.312 61.008 1.616 60.912 1.008 60.784V58.096C2.64 58.224 3.768 58.288 4.392 58.288C4.952 58.288 5.376 58.256 5.664 58.192C5.952 58.128 6.168 58.016 6.312 57.856C6.44 57.728 6.52 57.552 6.552 57.328C6.6 57.088 6.624 56.752 6.624 56.32C6.624 55.728 6.592 55.312 6.528 55.072C6.464 54.816 6.328 54.632 6.12 54.52C5.928 54.392 5.584 54.28 5.088 54.184L2.832 53.776C2.032 53.632 1.48 53.192 1.176 52.456C0.872 51.72 0.72 50.656 0.72 49.264C0.72 47.904 0.912 46.864 1.296 46.144C1.696 45.424 2.24 44.936 2.928 44.68C3.616 44.424 4.488 44.296 5.544 44.296C6.28 44.296 6.984 44.344 7.656 44.44C8.344 44.536 8.904 44.632 9.336 44.728V47.416C8.472 47.272 7.504 47.2 6.432 47.2C5.856 47.2 5.408 47.224 5.088 47.272C4.784 47.32 4.56 47.408 4.416 47.536C4.24 47.664 4.128 47.848 4.08 48.088C4.032 48.328 4.008 48.68 4.008 49.144C4.008 49.64 4.032 50 4.08 50.224C4.144 50.448 4.248 50.608 4.392 50.704C4.536 50.8 4.784 50.88 5.136 50.944L7.248 51.328C7.808 51.408 8.28 51.584 8.664 51.856C9.064 52.112 9.376 52.544 9.6 53.152C9.824 53.792 9.936 54.696 9.936 55.864C9.936 57.384 9.752 58.528 9.384 59.296C9.016 60.064 8.504 60.576 7.848 60.832C7.208 61.072 6.36 61.192 5.304 61.192ZM14.0006 61V47.488H10.8806V44.488H20.4326V47.488H17.3126V61H14.0006ZM26.7439 61.192C25.0799 61.192 23.8959 60.952 23.1919 60.472C22.4879 59.976 22.0479 59.192 21.8719 58.12C21.6959 57.032 21.6079 55.24 21.6079 52.744C21.6079 50.232 21.6959 48.44 21.8719 47.368C22.0479 46.296 22.4879 45.52 23.1919 45.04C23.8959 44.544 25.0799 44.296 26.7439 44.296C28.4079 44.296 29.5919 44.544 30.2959 45.04C30.9999 45.52 31.4399 46.296 31.6159 47.368C31.7919 48.44 31.8799 50.232 31.8799 52.744C31.8799 55.24 31.7919 57.032 31.6159 58.12C31.4399 59.192 30.9999 59.976 30.2959 60.472C29.5919 60.952 28.4079 61.192 26.7439 61.192ZM26.7439 58.288C27.3839 58.288 27.8159 58.2 28.0399 58.024C28.2639 57.848 28.4079 57.416 28.4719 56.728C28.5359 56.04 28.5679 54.712 28.5679 52.744C28.5679 50.776 28.5359 49.448 28.4719 48.76C28.4079 48.072 28.2639 47.64 28.0399 47.464C27.8159 47.288 27.3839 47.2 26.7439 47.2C26.1039 47.2 25.6719 47.288 25.4479 47.464C25.2239 47.64 25.0799 48.072 25.0159 48.76C24.9519 49.448 24.9199 50.776 24.9199 52.744C24.9199 54.712 24.9519 56.04 25.0159 56.728C25.0799 57.416 25.2239 57.848 25.4479 58.024C25.6719 58.2 26.1039 58.288 26.7439 58.288ZM40.7565 61L39.1485 55.24H37.3725V61H34.0605V44.488H39.6285C40.8125 44.488 41.7005 44.688 42.2925 45.088C42.9005 45.488 43.3085 46.064 43.5165 46.816C43.7245 47.568 43.8285 48.576 43.8285 49.84C43.8285 51.04 43.7165 52.032 43.4925 52.816C43.2845 53.6 42.8525 54.192 42.1965 54.592L44.1885 61H40.7565ZM38.8365 52.384C39.3645 52.384 39.7405 52.328 39.9645 52.216C40.1885 52.088 40.3325 51.864 40.3965 51.544C40.4765 51.208 40.5165 50.648 40.5165 49.864C40.5165 49.096 40.4765 48.552 40.3965 48.232C40.3325 47.912 40.1885 47.696 39.9645 47.584C39.7405 47.456 39.3645 47.392 38.8365 47.392H37.3725V52.384H38.8365ZM48.1854 61V55.288L44.2734 44.488H47.6574L49.8174 51.616H50.0334L52.1214 44.488H55.3854L51.4734 55.288V61H48.1854Z" fill="#DE9E41"/>
</svg>
