<svg width="77" height="72" viewBox="0 0 77 72" fill="none" xmlns="http://www.w3.org/2000/svg">
<rect x="23.5" width="10" height="10" fill="#090A14"/>
<rect x="23.5" y="10" width="10" height="10" fill="#090A14"/>
<rect x="23.5" y="20" width="10" height="10" fill="#090A14"/>
<rect x="43.5" width="10" height="10" fill="#090A14"/>
<rect x="43.5" y="10" width="10" height="10" fill="#090A14"/>
<rect x="43.5" y="20" width="10" height="10" fill="#090A14"/>
<path d="M1.748 61V44.488H5.06V58H9.236V61H1.748ZM10.8418 61V44.488H18.8578V47.392H14.1538V51.208H18.2098V54.112H14.1538V58.096H18.8578V61H10.8418ZM28.1673 61L27.5193 57.616H23.8233L23.1753 61H19.8873L23.2953 44.488H28.1193L31.5273 61H28.1673ZM25.7433 47.608H25.5993L24.3033 54.76H27.0153L25.7433 47.608ZM32.9668 44.488H37.4308C39.1268 44.488 40.3348 44.728 41.0548 45.208C41.7908 45.672 42.2468 46.432 42.4228 47.488C42.5988 48.528 42.6868 50.28 42.6868 52.744C42.6868 55.208 42.5988 56.968 42.4228 58.024C42.2468 59.064 41.7908 59.824 41.0548 60.304C40.3348 60.768 39.1268 61 37.4308 61H32.9668V44.488ZM37.3828 58.096C38.0868 58.096 38.5588 58.016 38.7988 57.856C39.0548 57.68 39.2148 57.256 39.2788 56.584C39.3588 55.912 39.3988 54.632 39.3988 52.744C39.3988 50.872 39.3588 49.6 39.2788 48.928C39.1988 48.24 39.0388 47.816 38.7988 47.656C38.5588 47.48 38.0868 47.392 37.3828 47.392H36.2548V58.096H37.3828ZM44.873 61V44.488H52.889V47.392H48.185V51.208H52.241V54.112H48.185V58.096H52.889V61H44.873ZM61.6706 61L60.0626 55.24H58.2866V61H54.9746V44.488H60.5426C61.7266 44.488 62.6146 44.688 63.2066 45.088C63.8146 45.488 64.2226 46.064 64.4306 46.816C64.6386 47.568 64.7426 48.576 64.7426 49.84C64.7426 51.04 64.6306 52.032 64.4066 52.816C64.1986 53.6 63.7666 54.192 63.1106 54.592L65.1026 61H61.6706ZM59.7506 52.384C60.2786 52.384 60.6546 52.328 60.8786 52.216C61.1026 52.088 61.2466 51.864 61.3106 51.544C61.3906 51.208 61.4306 50.648 61.4306 49.864C61.4306 49.096 61.3906 48.552 61.3106 48.232C61.2466 47.912 61.1026 47.696 60.8786 47.584C60.6546 47.456 60.2786 47.392 59.7506 47.392H58.2866V52.384H59.7506ZM70.8899 61.192C70.2179 61.192 69.4819 61.152 68.6819 61.072C67.8979 61.008 67.2019 60.912 66.5939 60.784V58.096C68.2259 58.224 69.3539 58.288 69.9779 58.288C70.5379 58.288 70.9619 58.256 71.2499 58.192C71.5379 58.128 71.7539 58.016 71.8979 57.856C72.0259 57.728 72.1059 57.552 72.1379 57.328C72.1859 57.088 72.2099 56.752 72.2099 56.32C72.2099 55.728 72.1779 55.312 72.1139 55.072C72.0499 54.816 71.9139 54.632 71.7059 54.52C71.5139 54.392 71.1699 54.28 70.6739 54.184L68.4179 53.776C67.6179 53.632 67.0659 53.192 66.7619 52.456C66.4579 51.72 66.3059 50.656 66.3059 49.264C66.3059 47.904 66.4979 46.864 66.8819 46.144C67.2819 45.424 67.8259 44.936 68.5139 44.68C69.2019 44.424 70.0739 44.296 71.1299 44.296C71.8659 44.296 72.5699 44.344 73.2419 44.44C73.9299 44.536 74.4899 44.632 74.9219 44.728V47.416C74.0579 47.272 73.0899 47.2 72.0179 47.2C71.4419 47.2 70.9939 47.224 70.6739 47.272C70.3699 47.32 70.1459 47.408 70.0019 47.536C69.8259 47.664 69.7139 47.848 69.6659 48.088C69.6179 48.328 69.5939 48.68 69.5939 49.144C69.5939 49.64 69.6179 50 69.6659 50.224C69.7299 50.448 69.8339 50.608 69.9779 50.704C70.1219 50.8 70.3699 50.88 70.7219 50.944L72.8339 51.328C73.3939 51.408 73.8659 51.584 74.2499 51.856C74.6499 52.112 74.9619 52.544 75.1859 53.152C75.4099 53.792 75.5219 54.696 75.5219 55.864C75.5219 57.384 75.3379 58.528 74.9699 59.296C74.6019 60.064 74.0899 60.576 73.4339 60.832C72.7939 61.072 71.9459 61.192 70.8899 61.192Z" fill="#DE9E41"/>
</svg>
