<svg width="47" height="72" viewBox="0 0 47 72" fill="none" xmlns="http://www.w3.org/2000/svg">
<rect x="8.5" y="10" width="10" height="10" fill="#090A14"/>
<rect x="8.5" y="20" width="10" height="10" fill="#090A14"/>
<rect x="18.5" y="20" width="10" height="10" fill="#090A14"/>
<rect x="28.5" y="20" width="10" height="10" fill="#090A14"/>
<rect x="28.5" y="10" width="10" height="10" fill="#090A14"/>
<rect x="18.5" width="10" height="10" fill="#090A14"/>
<path d="M5.304 61.192C4.632 61.192 3.896 61.152 3.096 61.072C2.312 61.008 1.616 60.912 1.008 60.784V58.096C2.64 58.224 3.768 58.288 4.392 58.288C4.952 58.288 5.376 58.256 5.664 58.192C5.952 58.128 6.168 58.016 6.312 57.856C6.44 57.728 6.52 57.552 6.552 57.328C6.6 57.088 6.624 56.752 6.624 56.32C6.624 55.728 6.592 55.312 6.528 55.072C6.464 54.816 6.328 54.632 6.12 54.52C5.928 54.392 5.584 54.28 5.088 54.184L2.832 53.776C2.032 53.632 1.48 53.192 1.176 52.456C0.872 51.72 0.72 50.656 0.72 49.264C0.72 47.904 0.912 46.864 1.296 46.144C1.696 45.424 2.24 44.936 2.928 44.68C3.616 44.424 4.488 44.296 5.544 44.296C6.28 44.296 6.984 44.344 7.656 44.44C8.344 44.536 8.904 44.632 9.336 44.728V47.416C8.472 47.272 7.504 47.2 6.432 47.2C5.856 47.2 5.408 47.224 5.088 47.272C4.784 47.32 4.56 47.408 4.416 47.536C4.24 47.664 4.128 47.848 4.08 48.088C4.032 48.328 4.008 48.68 4.008 49.144C4.008 49.64 4.032 50 4.08 50.224C4.144 50.448 4.248 50.608 4.392 50.704C4.536 50.8 4.784 50.88 5.136 50.944L7.248 51.328C7.808 51.408 8.28 51.584 8.664 51.856C9.064 52.112 9.376 52.544 9.6 53.152C9.824 53.792 9.936 54.696 9.936 55.864C9.936 57.384 9.752 58.528 9.384 59.296C9.016 60.064 8.504 60.576 7.848 60.832C7.208 61.072 6.36 61.192 5.304 61.192ZM18.5606 61V54.208H15.1766V61H11.8886V44.488H15.1766V51.16H18.5606V44.488H21.8486V61H18.5606ZM29.1579 61.192C27.4939 61.192 26.3099 60.952 25.6059 60.472C24.9019 59.976 24.4619 59.192 24.2859 58.12C24.1099 57.032 24.0219 55.24 24.0219 52.744C24.0219 50.232 24.1099 48.44 24.2859 47.368C24.4619 46.296 24.9019 45.52 25.6059 45.04C26.3099 44.544 27.4939 44.296 29.1579 44.296C30.8219 44.296 32.0059 44.544 32.7099 45.04C33.4139 45.52 33.8539 46.296 34.0299 47.368C34.2059 48.44 34.2939 50.232 34.2939 52.744C34.2939 55.24 34.2059 57.032 34.0299 58.12C33.8539 59.192 33.4139 59.976 32.7099 60.472C32.0059 60.952 30.8219 61.192 29.1579 61.192ZM29.1579 58.288C29.7979 58.288 30.2299 58.2 30.4539 58.024C30.6779 57.848 30.8219 57.416 30.8859 56.728C30.9499 56.04 30.9819 54.712 30.9819 52.744C30.9819 50.776 30.9499 49.448 30.8859 48.76C30.8219 48.072 30.6779 47.64 30.4539 47.464C30.2299 47.288 29.7979 47.2 29.1579 47.2C28.5179 47.2 28.0859 47.288 27.8619 47.464C27.6379 47.64 27.4939 48.072 27.4299 48.76C27.3659 49.448 27.3339 50.776 27.3339 52.744C27.3339 54.712 27.3659 56.04 27.4299 56.728C27.4939 57.416 27.6379 57.848 27.8619 58.024C28.0859 58.2 28.5179 58.288 29.1579 58.288ZM36.4746 44.488H41.9226C43.0906 44.488 43.9706 44.696 44.5626 45.112C45.1706 45.528 45.5786 46.136 45.7866 46.936C45.9946 47.72 46.0986 48.768 46.0986 50.08C46.0986 51.344 46.0026 52.376 45.8106 53.176C45.6186 53.96 45.2186 54.584 44.6106 55.048C44.0026 55.496 43.0986 55.72 41.8986 55.72H39.7866V61H36.4746V44.488ZM41.0826 52.816C41.6266 52.816 42.0106 52.752 42.2346 52.624C42.4586 52.496 42.6026 52.256 42.6666 51.904C42.7466 51.536 42.7866 50.928 42.7866 50.08C42.7866 49.232 42.7466 48.632 42.6666 48.28C42.6026 47.928 42.4586 47.696 42.2346 47.584C42.0266 47.456 41.6506 47.392 41.1066 47.392H39.7866V52.816H41.0826Z" fill="#DE9E41"/>
</svg>
